<svg width="381" height="380" viewBox="0 0 381 380" fill="none" xmlns="http://www.w3.org/2000/svg">
<path opacity="0.6" d="M235.5 242.2C289.072 242.2 332.5 198.772 332.5 145.2C332.5 91.6286 289.072 48.2002 235.5 48.2002C181.928 48.2002 138.5 91.6286 138.5 145.2C138.5 198.772 181.928 242.2 235.5 242.2Z" fill="url(#paint0_linear)"/>
<path d="M375.9 183.9L380.1 188.1L188.3 379.9L184.1 375.7L375.9 183.9Z" fill="url(#paint1_linear)"/>
<path d="M367.6 175.6L371.8 179.8L180 371.6L175.8 367.4L367.6 175.6Z" fill="url(#paint2_linear)"/>
<path d="M359.3 167.3L363.4 171.4L171.6 363.2L167.5 359.1L359.3 167.3Z" fill="url(#paint3_linear)"/>
<path d="M350.9 158.9L355.1 163.1L163.3 354.9L159.1 350.7L350.9 158.9Z" fill="url(#paint4_linear)"/>
<path d="M342.6 150.6L346.8 154.8L155 346.6L150.8 342.4L342.6 150.6Z" fill="url(#paint5_linear)"/>
<path d="M334.3 142.3L338.4 146.4L146.6 338.2L142.5 334.1L334.3 142.3Z" fill="url(#paint6_linear)"/>
<path d="M325.9 133.9L330.1 138.1L138.3 329.9L134.1 325.7L325.9 133.9Z" fill="url(#paint7_linear)"/>
<path d="M317.6 125.6L321.8 129.8L130 321.6L125.8 317.4L317.6 125.6Z" fill="url(#paint8_linear)"/>
<path d="M309.3 117.3L313.4 121.4L121.6 313.2L117.5 309.1L309.3 117.3Z" fill="url(#paint9_linear)"/>
<path d="M300.9 108.9L305.1 113.1L113.3 304.9L109.1 300.7L300.9 108.9Z" fill="url(#paint10_linear)"/>
<path d="M292.6 100.6L296.8 104.8L105 296.6L100.8 292.4L292.6 100.6Z" fill="url(#paint11_linear)"/>
<path d="M284.3 92.3L288.4 96.4001L96.6 288.2L92.5 284.1L284.3 92.3Z" fill="url(#paint12_linear)"/>
<path d="M275.9 83.9001L280.1 88.1002L88.3 279.9L84.1 275.7L275.9 83.9001Z" fill="url(#paint13_linear)"/>
<path d="M267.6 75.6001L271.8 79.8001L80 271.6L75.8 267.4L267.6 75.6001Z" fill="url(#paint14_linear)"/>
<path d="M259.3 67.3L263.4 71.4001L71.6 263.2L67.5 259.1L259.3 67.3Z" fill="url(#paint15_linear)"/>
<path d="M250.9 58.9001L255.1 63.1002L63.3 254.9L59.1 250.7L250.9 58.9001Z" fill="url(#paint16_linear)"/>
<path d="M242.6 50.6001L246.8 54.8001L55 246.6L50.8 242.4L242.6 50.6001Z" fill="url(#paint17_linear)"/>
<path d="M234.3 42.3L238.4 46.4001L46.6 238.2L42.5 234.1L234.3 42.3Z" fill="url(#paint18_linear)"/>
<path d="M225.9 33.9001L230.1 38.1002L38.3 229.9L34.1 225.7L225.9 33.9001Z" fill="url(#paint19_linear)"/>
<path d="M217.6 25.6001L221.8 29.8001L30 221.6L25.8 217.4L217.6 25.6001Z" fill="url(#paint20_linear)"/>
<path d="M209.3 17.3L213.4 21.4001L21.6 213.2L17.5 209.1L209.3 17.3Z" fill="url(#paint21_linear)"/>
<path d="M200.9 8.90015L205.1 13.1002L13.3 204.9L9.09998 200.7L200.9 8.90015Z" fill="url(#paint22_linear)"/>
<path d="M192.6 0.600098L196.8 4.80008L5 196.6L0.799988 192.4L192.6 0.600098Z" fill="url(#paint23_linear)"/>
<path opacity="0.6" d="M287.2 351.8C299.682 351.8 309.8 341.682 309.8 329.2C309.8 316.718 299.682 306.6 287.2 306.6C274.718 306.6 264.6 316.718 264.6 329.2C264.6 341.682 274.718 351.8 287.2 351.8Z" fill="url(#paint24_linear)"/>
<path opacity="0.6" d="M332.5 339.6C332.5 333.9 337.1 329.3 342.8 329.3C348.5 329.3 353.1 333.9 353.1 339.6C353.1 345.3 348.5 349.9 342.8 349.9C337.1 349.9 332.5 345.3 332.5 339.6Z" fill="url(#paint25_linear)"/>
<defs>
<linearGradient id="paint0_linear" x1="332.477" y1="145.2" x2="138.506" y2="145.2" gradientUnits="userSpaceOnUse">
<stop stop-color="white"/>
<stop offset="1" stop-color="#603F84"/>
</linearGradient>
<linearGradient id="paint1_linear" x1="378.008" y1="186.019" x2="186.213" y2="377.814" gradientUnits="userSpaceOnUse">
<stop stop-color="white" stop-opacity="0"/>
<stop offset="1" stop-color="#603F84"/>
</linearGradient>
<linearGradient id="paint2_linear" x1="369.675" y1="177.685" x2="177.879" y2="369.481" gradientUnits="userSpaceOnUse">
<stop stop-color="white" stop-opacity="0"/>
<stop offset="1" stop-color="#603F84"/>
</linearGradient>
<linearGradient id="paint3_linear" x1="361.341" y1="169.352" x2="169.546" y2="361.147" gradientUnits="userSpaceOnUse">
<stop stop-color="white" stop-opacity="0"/>
<stop offset="1" stop-color="#603F84"/>
</linearGradient>
<linearGradient id="paint4_linear" x1="353.008" y1="161.019" x2="161.212" y2="352.814" gradientUnits="userSpaceOnUse">
<stop stop-color="white" stop-opacity="0"/>
<stop offset="1" stop-color="#603F84"/>
</linearGradient>
<linearGradient id="paint5_linear" x1="344.674" y1="152.685" x2="152.879" y2="344.481" gradientUnits="userSpaceOnUse">
<stop stop-color="white" stop-opacity="0"/>
<stop offset="1" stop-color="#603F84"/>
</linearGradient>
<linearGradient id="paint6_linear" x1="336.341" y1="144.352" x2="144.546" y2="336.147" gradientUnits="userSpaceOnUse">
<stop stop-color="white" stop-opacity="0"/>
<stop offset="1" stop-color="#603F84"/>
</linearGradient>
<linearGradient id="paint7_linear" x1="328.007" y1="136.019" x2="136.212" y2="327.814" gradientUnits="userSpaceOnUse">
<stop stop-color="white" stop-opacity="0"/>
<stop offset="1" stop-color="#603F84"/>
</linearGradient>
<linearGradient id="paint8_linear" x1="319.674" y1="127.685" x2="127.879" y2="319.48" gradientUnits="userSpaceOnUse">
<stop stop-color="white" stop-opacity="0"/>
<stop offset="1" stop-color="#603F84"/>
</linearGradient>
<linearGradient id="paint9_linear" x1="311.341" y1="119.352" x2="119.545" y2="311.147" gradientUnits="userSpaceOnUse">
<stop stop-color="white" stop-opacity="0"/>
<stop offset="1" stop-color="#603F84"/>
</linearGradient>
<linearGradient id="paint10_linear" x1="303.007" y1="111.018" x2="111.212" y2="302.814" gradientUnits="userSpaceOnUse">
<stop stop-color="white" stop-opacity="0"/>
<stop offset="1" stop-color="#603F84"/>
</linearGradient>
<linearGradient id="paint11_linear" x1="294.674" y1="102.685" x2="102.879" y2="294.48" gradientUnits="userSpaceOnUse">
<stop stop-color="white" stop-opacity="0"/>
<stop offset="1" stop-color="#603F84"/>
</linearGradient>
<linearGradient id="paint12_linear" x1="286.34" y1="94.3514" x2="94.5452" y2="286.147" gradientUnits="userSpaceOnUse">
<stop stop-color="white" stop-opacity="0"/>
<stop offset="1" stop-color="#603F84"/>
</linearGradient>
<linearGradient id="paint13_linear" x1="278.007" y1="86.0181" x2="86.2117" y2="277.813" gradientUnits="userSpaceOnUse">
<stop stop-color="white" stop-opacity="0"/>
<stop offset="1" stop-color="#603F84"/>
</linearGradient>
<linearGradient id="paint14_linear" x1="269.674" y1="77.6846" x2="77.8785" y2="269.48" gradientUnits="userSpaceOnUse">
<stop stop-color="white" stop-opacity="0"/>
<stop offset="1" stop-color="#603F84"/>
</linearGradient>
<linearGradient id="paint15_linear" x1="261.34" y1="69.3511" x2="69.545" y2="261.146" gradientUnits="userSpaceOnUse">
<stop stop-color="white" stop-opacity="0"/>
<stop offset="1" stop-color="#603F84"/>
</linearGradient>
<linearGradient id="paint16_linear" x1="253.007" y1="61.0179" x2="61.2114" y2="252.813" gradientUnits="userSpaceOnUse">
<stop stop-color="white" stop-opacity="0"/>
<stop offset="1" stop-color="#603F84"/>
</linearGradient>
<linearGradient id="paint17_linear" x1="244.673" y1="52.6843" x2="52.8783" y2="244.48" gradientUnits="userSpaceOnUse">
<stop stop-color="white" stop-opacity="0"/>
<stop offset="1" stop-color="#603F84"/>
</linearGradient>
<linearGradient id="paint18_linear" x1="236.34" y1="44.3509" x2="44.5447" y2="236.146" gradientUnits="userSpaceOnUse">
<stop stop-color="white" stop-opacity="0"/>
<stop offset="1" stop-color="#603F84"/>
</linearGradient>
<linearGradient id="paint19_linear" x1="228.006" y1="36.0175" x2="36.2113" y2="227.813" gradientUnits="userSpaceOnUse">
<stop stop-color="white" stop-opacity="0"/>
<stop offset="1" stop-color="#603F84"/>
</linearGradient>
<linearGradient id="paint20_linear" x1="219.673" y1="27.6841" x2="27.878" y2="219.48" gradientUnits="userSpaceOnUse">
<stop stop-color="white" stop-opacity="0"/>
<stop offset="1" stop-color="#603F84"/>
</linearGradient>
<linearGradient id="paint21_linear" x1="211.34" y1="19.3506" x2="19.5445" y2="211.146" gradientUnits="userSpaceOnUse">
<stop stop-color="white" stop-opacity="0"/>
<stop offset="1" stop-color="#603F84"/>
</linearGradient>
<linearGradient id="paint22_linear" x1="203.006" y1="11.0173" x2="11.211" y2="202.813" gradientUnits="userSpaceOnUse">
<stop stop-color="white" stop-opacity="0"/>
<stop offset="1" stop-color="#603F84"/>
</linearGradient>
<linearGradient id="paint23_linear" x1="194.673" y1="2.6838" x2="2.87768" y2="194.479" gradientUnits="userSpaceOnUse">
<stop stop-color="white" stop-opacity="0"/>
<stop offset="1" stop-color="#603F84"/>
</linearGradient>
<linearGradient id="paint24_linear" x1="303.234" y1="313.239" x2="271.246" y2="345.227" gradientUnits="userSpaceOnUse">
<stop stop-color="white"/>
<stop offset="1" stop-color="#603F84"/>
</linearGradient>
<linearGradient id="paint25_linear" x1="350.115" y1="332.259" x2="335.503" y2="346.871" gradientUnits="userSpaceOnUse">
<stop stop-color="white"/>
<stop offset="1" stop-color="#603F84"/>
</linearGradient>
</defs>
</svg>
