<svg width="262" height="252" viewBox="0 0 262 252" fill="none" xmlns="http://www.w3.org/2000/svg">
<path d="M157.6 48.9C162.5 48.9 167.6 35.7 167.5 24.4C167.4 13.1 162.1 4.59998 159.1 0.599976C156.1 3.99998 148 14 148.4 27.8C148.6 37.2001 153 48.8 157.6 48.9Z" fill="#F0F6EC"/>
<path d="M183.6 55.7C187.7 58.2 198.9 49.6 204.7 39.9C210.5 30.1 210.3 20.1 209.8 15.1C205.5 16.4 193.3 20.8 186.6 32.8C182 41.1 179.8 53.2999 183.6 55.7Z" fill="#F0F6EC"/>
<path d="M155.7 87C158.3 88.1 164.1 82.1 166.6 75.9C169.1 69.7 168.1 63.9 167.4 61C165 62.2 158.3 65.8 155.4 73.4C153.4 78.7 153.2 86 155.7 87Z" fill="#F0F6EC"/>
<path d="M200.8 83.7C204.3 87.1 217.1 81.2 225 73.1C232.8 64.9 235 55.1 235.6 50.2C231.1 50.5 218.3 52 209 62.1C202.5 69.1 197.6 80.5 200.8 83.7Z" fill="#F0F6EC"/>
<path d="M214.7 106.8C215.9 111.5 230 113.1 240.9 110.2C251.8 107.3 258.7 100 261.9 96.1C257.9 94 246.1 88.7 232.9 92.5C223.7 95.2 213.6 102.4 214.7 106.8Z" fill="#F0F6EC"/>
<path d="M172.8 109.7C173.9 112.3 182.2 112.1 188.3 109.4C194.4 106.7 197.8 101.9 199.3 99.3C196.8 98.5 189.5 96.4 182.1 99.8C177 102.1 171.8 107.2 172.8 109.7Z" fill="#F0F6EC"/>
<path d="M139.1 120.6C141 122.7 148.8 119.6 153.6 115C158.5 110.4 160 104.7 160.5 101.8C157.8 101.9 150.2 102.4 144.5 108.1C140.5 112.1 137.3 118.6 139.1 120.6Z" fill="#F0F6EC"/>
<path d="M156.2 199.9C161.1 199.9 166.2 213.1 166.1 224.4C166 235.7 160.7 244.2 157.7 248.2C154.7 244.8 146.6 234.8 147 221C147.3 211.6 151.7 200 156.2 199.9Z" fill="#F0F6EC"/>
<path d="M182.3 193.1C186.4 190.6 197.6 199.2 203.4 208.9C209.2 218.7 209 228.7 208.5 233.7C204.2 232.4 192 228 185.3 216C180.6 207.7 178.4 195.5 182.3 193.1Z" fill="#F0F6EC"/>
<path d="M199.5 165.1C203 161.7 215.8 167.6 223.7 175.7C231.5 183.9 233.7 193.7 234.3 198.6C229.8 198.3 217 196.8 207.7 186.7C201.2 179.7 196.2 168.3 199.5 165.1Z" fill="#F0F6EC"/>
<path d="M213.4 142C214.6 137.3 228.7 135.7 239.6 138.6C250.5 141.5 257.4 148.8 260.6 152.7C256.6 154.8 244.8 160.1 231.6 156.3C222.4 153.6 212.2 146.4 213.4 142Z" fill="#F0F6EC"/>
<path d="M171.5 139.2C172.6 136.6 180.9 136.8 187 139.5C193.1 142.2 196.5 147 198 149.6C195.5 150.4 188.2 152.5 180.8 149.1C175.7 146.7 170.4 141.6 171.5 139.2Z" fill="#F0F6EC"/>
<path d="M137.8 128.2C139.7 126.1 147.5 129.2 152.3 133.8C157.2 138.4 158.7 144.1 159.2 147C156.5 146.9 148.9 146.4 143.2 140.7C139.2 136.7 136 130.2 137.8 128.2Z" fill="#F0F6EC"/>
<path d="M157.6 48.9C162.5 48.9 167.6 35.7 167.5 24.4C167.4 13.1 162.1 4.59998 159.1 0.599976C156.1 3.99998 148 14 148.4 27.8C148.6 37.2001 153 48.8 157.6 48.9Z" fill="#F0F6EC"/>
<path d="M183.6 55.7C187.7 58.2 198.9 49.6 204.7 39.9C210.5 30.1 210.3 20.1 209.8 15.1C205.5 16.4 193.3 20.8 186.6 32.8C182 41.1 179.8 53.2999 183.6 55.7Z" fill="#F0F6EC"/>
<path d="M155.7 87C158.3 88.1 164.1 82.1 166.6 75.9C169.1 69.7 168.1 63.9 167.4 61C165 62.2 158.3 65.8 155.4 73.4C153.4 78.7 153.2 86 155.7 87Z" fill="#F0F6EC"/>
<path d="M200.8 83.7C204.3 87.1 217.1 81.2 225 73.1C232.8 64.9 235 55.1 235.6 50.2C231.1 50.5 218.3 52 209 62.1C202.5 69.1 197.6 80.5 200.8 83.7Z" fill="#F0F6EC"/>
<path d="M214.7 106.8C215.9 111.5 230 113.1 240.9 110.2C251.8 107.3 258.7 100 261.9 96.1C257.9 94 246.1 88.7 232.9 92.5C223.7 95.2 213.6 102.4 214.7 106.8Z" fill="#F0F6EC"/>
<path d="M172.8 109.7C173.9 112.3 182.2 112.1 188.3 109.4C194.4 106.7 197.8 101.9 199.3 99.3C196.8 98.5 189.5 96.4 182.1 99.8C177 102.1 171.8 107.2 172.8 109.7Z" fill="#F0F6EC"/>
<path d="M139.1 120.6C141 122.7 148.8 119.6 153.6 115C158.5 110.4 160 104.7 160.5 101.8C157.8 101.9 150.2 102.4 144.5 108.1C140.5 112.1 137.3 118.6 139.1 120.6Z" fill="#F0F6EC"/>
<path d="M156.2 199.9C161.1 199.9 166.2 213.1 166.1 224.4C166 235.7 160.7 244.2 157.7 248.2C154.7 244.8 146.6 234.8 147 221C147.3 211.6 151.7 200 156.2 199.9Z" fill="#F0F6EC"/>
<path d="M182.3 193.1C186.4 190.6 197.6 199.2 203.4 208.9C209.2 218.7 209 228.7 208.5 233.7C204.2 232.4 192 228 185.3 216C180.6 207.7 178.4 195.5 182.3 193.1Z" fill="#F0F6EC"/>
<path d="M156.5 163.9C159.1 162.8 164.9 168.8 167.4 175C169.9 181.2 168.9 187 168.2 189.9C165.8 188.7 159.1 185.1 156.2 177.5C154.2 172.3 154 164.9 156.5 163.9Z" fill="#F0F6EC"/>
<path d="M199.5 165.1C203 161.7 215.8 167.6 223.7 175.7C231.5 183.9 233.7 193.7 234.3 198.6C229.8 198.3 217 196.8 207.7 186.7C201.2 179.7 196.2 168.3 199.5 165.1Z" fill="#F0F6EC"/>
<path d="M213.4 142C214.6 137.3 228.7 135.7 239.6 138.6C250.5 141.5 257.4 148.8 260.6 152.7C256.6 154.8 244.8 160.1 231.6 156.3C222.4 153.6 212.2 146.4 213.4 142Z" fill="#F0F6EC"/>
<path d="M171.5 139.2C172.6 136.6 180.9 136.8 187 139.5C193.1 142.2 196.5 147 198 149.6C195.5 150.4 188.2 152.5 180.8 149.1C175.7 146.7 170.4 141.6 171.5 139.2Z" fill="#F0F6EC"/>
<path d="M137.8 128.2C139.7 126.1 147.5 129.2 152.3 133.8C157.2 138.4 158.7 144.1 159.2 147C156.5 146.9 148.9 146.4 143.2 140.7C139.2 136.7 136 130.2 137.8 128.2Z" fill="#F0F6EC"/>
<path d="M104.9 203.1C100 203.1 94.9 216.3 95.1 227.6C95.2 238.9 100.6 247.4 103.5 251.4C106.5 248 114.6 238 114.2 224.2C113.9 214.7 109.5 203.1 104.9 203.1Z" fill="#F0F6EC"/>
<path d="M78.9 196.3C74.8 193.8 63.6 202.4 57.8 212.2C52 222 52.2 232 52.7 237C57 235.7 69.2 231.3 75.9 219.3C80.6 210.8 82.7 198.6 78.9 196.3Z" fill="#F0F6EC"/>
<path d="M106.8 164.9C104.2 163.8 98.4 169.8 95.9 176C93.4 182.2 94.4 188 95.1 190.9C97.5 189.7 104.2 186.1 107.1 178.5C109.1 173.3 109.3 166 106.8 164.9Z" fill="#F0F6EC"/>
<path d="M61.7 168.3C58.2 164.9 45.4 170.8 37.6 178.9C29.8 187.1 27.7 196.9 27 201.8C31.5 201.5 44.3 200 53.6 189.9C60 182.9 64.9 171.5 61.7 168.3Z" fill="#F0F6EC"/>
<path d="M47.8 145.2C46.6 140.5 32.5 138.9 21.6 141.8C10.7 144.7 3.80001 152.1 0.600006 155.9C4.60001 158 16.4 163.3 29.6 159.5C38.8 156.8 48.9 149.6 47.8 145.2Z" fill="#F0F6EC"/>
<path d="M123.4 131.3C121.5 129.2 113.7 132.3 108.9 136.9C104 141.5 102.5 147.2 102 150.1C104.7 150 112.3 149.5 118 143.8C121.9 139.8 125.2 133.3 123.4 131.3Z" fill="#F0F6EC"/>
<path d="M106.2 52C101.3 52 96.2 38.8 96.3 27.5C96.4 16.2 101.7 7.69995 104.7 3.69995C107.7 7.09995 115.8 17.1 115.4 30.8C115.2 40.4 110.7 52 106.2 52Z" fill="#F0F6EC"/>
<path d="M80.1 58.8C76 61.3 64.8 52.7 59 43C53.2 33.2 53.4 23.2 53.9 18.2C58.2 19.5 70.4 23.9 77.1 35.9C81.8 44.2 84 56.4 80.1 58.8Z" fill="#F0F6EC"/>
<path d="M63 86.8C59.5 90.2001 46.7 84.3 38.8 76.2C30.9 68 28.8 58.2 28.2 53.3C32.7 53.6 45.5 55.1 54.8 65.2C61.3 72.2 66.2 83.6 63 86.8Z" fill="#F0F6EC"/>
<path d="M49.1 109.9C47.9 114.6 33.8 116.3 22.9 113.3C11.9 110.4 5.09999 103.1 1.89999 99.2C5.89999 97.1 17.7 91.8 30.9 95.6C40.1 98.3 50.2 105.5 49.1 109.9Z" fill="#F0F6EC"/>
<path d="M91 112.8C89.9 115.4 81.6 115.2 75.5 112.5C69.4 109.8 66 105 64.5 102.4C67 101.5 74.3 99.5 81.7 102.9C86.8 105.2 92 110.3 91 112.8Z" fill="#F0F6EC"/>
<path d="M124.7 123.7C122.8 125.8 115 122.7 110.2 118.2C105.3 113.6 103.8 107.9 103.3 105C106 105.1 113.6 105.6 119.3 111.2C123.2 115.2 126.5 121.7 124.7 123.7Z" fill="#F0F6EC"/>
<path d="M104.9 203.1C100 203.1 94.9 216.3 95.1 227.6C95.2 238.9 100.6 247.4 103.5 251.4C106.5 248 114.6 238 114.2 224.2C113.9 214.7 109.5 203.1 104.9 203.1Z" fill="#F0F6EC"/>
<path d="M78.9 196.3C74.8 193.8 63.6 202.4 57.8 212.2C52 222 52.2 232 52.7 237C57 235.7 69.2 231.3 75.9 219.3C80.6 210.8 82.7 198.6 78.9 196.3Z" fill="#F0F6EC"/>
<path d="M106.8 164.9C104.2 163.8 98.4 169.8 95.9 176C93.4 182.2 94.4 188 95.1 190.9C97.5 189.7 104.2 186.1 107.1 178.5C109.1 173.3 109.3 166 106.8 164.9Z" fill="#F0F6EC"/>
<path d="M61.7 168.3C58.2 164.9 45.4 170.8 37.6 178.9C29.8 187.1 27.7 196.9 27 201.8C31.5 201.5 44.3 200 53.6 189.9C60 182.9 64.9 171.5 61.7 168.3Z" fill="#F0F6EC"/>
<path d="M47.8 145.2C46.6 140.5 32.5 138.9 21.6 141.8C10.7 144.7 3.80001 152.1 0.600006 155.9C4.60001 158 16.4 163.3 29.6 159.5C38.8 156.8 48.9 149.6 47.8 145.2Z" fill="#F0F6EC"/>
<path d="M91.8 144.4C90.7 141.8 82.4 142.1 76.3 144.7C70.2 147.4 66.8 152.2 65.3 154.8C67.8 155.6 75.1 157.7 82.5 154.3C87.6 151.9 92.8 146.9 91.8 144.4Z" fill="#F0F6EC"/>
<path d="M123.4 131.3C121.5 129.2 113.7 132.3 108.9 136.9C104 141.5 102.5 147.2 102 150.1C104.7 150 112.3 149.5 118 143.8C121.9 139.8 125.2 133.3 123.4 131.3Z" fill="#F0F6EC"/>
<path d="M106.2 52C101.3 52 96.2 38.8 96.3 27.5C96.4 16.2 101.7 7.69995 104.7 3.69995C107.7 7.09995 115.8 17.1 115.4 30.8C115.2 40.4 110.7 52 106.2 52Z" fill="#F0F6EC"/>
<path d="M80.1 58.8C76 61.3 64.8 52.7 59 43C53.2 33.2 53.4 23.2 53.9 18.2C58.2 19.5 70.4 23.9 77.1 35.9C81.8 44.2 84 56.4 80.1 58.8Z" fill="#F0F6EC"/>
<path d="M110.2 92.2C107.6 93.3 101.8 87.3 99.3 81.1C96.8 74.9 97.8 69.1 98.5 66.2C100.9 67.4 107.6 71 110.5 78.6C112.4 83.9 112.7 91.2 110.2 92.2Z" fill="#F0F6EC"/>
<path d="M63 86.8C59.5 90.2001 46.7 84.3 38.8 76.2C30.9 68 28.8 58.2 28.2 53.3C32.7 53.6 45.5 55.1 54.8 65.2C61.3 72.2 66.2 83.6 63 86.8Z" fill="#F0F6EC"/>
<path d="M49.1 109.9C47.9 114.6 33.8 116.3 22.9 113.3C11.9 110.4 5.09999 103.1 1.89999 99.2C5.89999 97.1 17.7 91.8 30.9 95.6C40.1 98.3 50.2 105.5 49.1 109.9Z" fill="#F0F6EC"/>
<path d="M91 112.8C89.9 115.4 81.6 115.2 75.5 112.5C69.4 109.8 66 105 64.5 102.4C67 101.5 74.3 99.5 81.7 102.9C86.8 105.2 92 110.3 91 112.8Z" fill="#F0F6EC"/>
<path d="M124.7 123.7C122.8 125.8 115 122.7 110.2 118.2C105.3 113.6 103.8 107.9 103.3 105C106 105.1 113.6 105.6 119.3 111.2C123.2 115.2 126.5 121.7 124.7 123.7Z" fill="#F0F6EC"/>
</svg>
