<svg width="936" height="594" viewBox="0 0 936 594" fill="none" xmlns="http://www.w3.org/2000/svg">
<path d="M936 524.1C795 486.3 728 497.7 692.9 516.3C685.5 520.2 658.6 535.6 618.1 549.7C579.8 563.1 558.9 570.4 531.4 567.5C508.5 565.1 498.8 557.6 473.6 559.8C457.9 561.1 449.3 565.1 433.1 570.7C394.8 583.7 359.7 589.8 342.5 591.7C336.7 592.4 293.7 596.9 251.7 584.6C195 568.1 166 528.7 142.5 496.8C109 451.4 95.5 406 72.9 329.7C72.4 328 69.7 318.4 64.2 299.1C28.7 173.1 33.4 185.2 26.7 164.9C20.7 146.5 12.5 123.4 5.1 89.6002C-0.699996 63.2002 -1.8 49.6001 6.5 36.0001C18.3 16.8001 42 8.80011 50.5 6.00011C58.3 3.40011 92 -6.99999 163.7 11.9C230 29.4 230.6 46 282.7 54.9C312.2 60 335.7 58.2002 382.8 54.8002C448.6 50.0002 466.8 40.0002 521.4 42.6002C528.1 42.9002 552.8 44.3002 584.1 50.3002C623.5 57.9002 645 67.4001 680.1 80.0001C744.6 103.2 797.2 122.2 860.8 125.8C893.1 127.6 919.7 125 936 122.8C936 178.8 936 234.8 936 290.8C936 368.5 936 446.3 936 524.1Z" fill="#F8B019"/>
</svg>
